<?xml version="1.0" encoding="UTF-8" standalone="no"?>
<!-- Created with Inkscape (http://www.inkscape.org/) -->

<svg
   xmlns:dc="http://purl.org/dc/elements/1.1/"
   xmlns:cc="http://creativecommons.org/ns#"
   xmlns:rdf="http://www.w3.org/1999/02/22-rdf-syntax-ns#"
   xmlns:svg="http://www.w3.org/2000/svg"
   xmlns="http://www.w3.org/2000/svg"
   xmlns:sodipodi="http://sodipodi.sourceforge.net/DTD/sodipodi-0.dtd"
   xmlns:inkscape="http://www.inkscape.org/namespaces/inkscape"
   width="210mm"
   height="297mm"
   id="svg2998"
   version="1.1"
   inkscape:version="0.48.3.1 r9886"
   sodipodi:docname="Documento nuevo 1">
  <defs
     id="defs3000">
    <filter
       color-interpolation-filters="sRGB"
       inkscape:collect="always"
       id="filter3232">
      <feGaussianBlur
         inkscape:collect="always"
         stdDeviation="4.3283459"
         id="feGaussianBlur3234" />
    </filter>
    <filter
       color-interpolation-filters="sRGB"
       inkscape:collect="always"
       id="filter3232-7">
      <feGaussianBlur
         inkscape:collect="always"
         stdDeviation="4.3283459"
         id="feGaussianBlur3234-3" />
    </filter>
  </defs>
  <sodipodi:namedview
     id="base"
     pagecolor="#ffffff"
     bordercolor="#666666"
     borderopacity="1.0"
     inkscape:pageopacity="0.0"
     inkscape:pageshadow="2"
     inkscape:zoom="0.82"
     inkscape:cx="313.3187"
     inkscape:cy="715.12195"
     inkscape:document-units="px"
     inkscape:current-layer="layer1"
     showgrid="false"
     inkscape:window-width="1528"
     inkscape:window-height="775"
     inkscape:window-x="0"
     inkscape:window-y="59"
     inkscape:window-maximized="0" />
  <metadata
     id="metadata3003">
    <rdf:RDF>
      <cc:Work
         rdf:about="">
        <dc:format>image/svg+xml</dc:format>
        <dc:type
           rdf:resource="http://purl.org/dc/dcmitype/StillImage" />
        <dc:title></dc:title>
      </cc:Work>
    </rdf:RDF>
  </metadata>
  <g
     inkscape:label="Capa 1"
     inkscape:groupmode="layer"
     id="layer1">
    <g
       id="g4060"
       transform="matrix(0.69989648,0,0,0.69989648,42.810711,37.96938)">
      <path
         inkscape:connector-curvature="0"
         transform="matrix(-0.29185464,0.36409157,0.34271632,0.31005764,87.276779,-182.26129)"
         sodipodi:nodetypes="cccccsccc"
         id="path3266"
         d="m 385.53663,459.29684 c 63.33703,-11.32358 101.34565,-9.37988 125.1579,0 -4.08738,14.00417 -19.26956,24.52754 -33.23402,36.76955 27.39905,-13.10335 55.19262,-25.07776 84.14571,-36.06245 -8.33632,-34.8261 -36.76532,-54.13577 -60.81118,-78.48884 3.52025,8.18959 8.6488,17.16391 12.08767,25.32095 1.72456,4.09067 2.49069,7.79797 1.34736,10.74148 -41.7193,-13.89449 -83.4386,-13.43017 -125.1579,-2.82843 l -3.53554,44.54774 z"
         style="fill:#8e8e8e;fill-opacity:1;fill-rule:evenodd;stroke:#000000;stroke-width:6.80000019;stroke-linecap:butt;stroke-linejoin:miter;stroke-miterlimit:4;stroke-opacity:1;stroke-dasharray:none;filter:url(#filter3232)" />
      <path
         inkscape:connector-curvature="0"
         sodipodi:nodetypes="cccccsccc"
         id="path3268"
         d="m 132.07296,93.256218 c -22.36598,19.549512 -32.792832,33.990792 -36.52791,45.568932 5.99238,2.85392 14.0299,0.58907 22.30103,-0.69954 -12.48727,5.91297 -24.702782,12.31961 -36.917508,19.4553 -9.502479,-13.83328 -7.823083,-30.17115 -9.151382,-46.4769 1.779305,3.82094 3.35816,8.47076 5.150061,12.25197 0.898618,1.89624 1.945572,3.32466 3.288047,3.82104 7.414103,-19.49773 19.749204,-34.543414 35.558562,-46.445909 l 16.2991,12.525107 z"
         style="fill:#d9590e;fill-opacity:1;fill-rule:evenodd;stroke:#000000;stroke-width:3.15502334;stroke-linecap:butt;stroke-linejoin:miter;stroke-miterlimit:4;stroke-opacity:1;stroke-dasharray:none" />
    </g>
    <text
       xml:space="preserve"
       style="font-size:50px;font-style:normal;font-weight:normal;line-height:125%;letter-spacing:0px;word-spacing:0px;fill:#000000;fill-opacity:1;stroke:none;font-family:Sans"
       x="340.2439"
       y="196.26462"
       id="text3111"
       sodipodi:linespacing="125%"><tspan
         sodipodi:role="line"
         id="tspan3113"
         x="340.2439"
         y="196.26462" /></text>
    <text
       xml:space="preserve"
       style="font-size:250px;font-style:normal;font-weight:normal;line-height:125%;letter-spacing:0px;word-spacing:0px;fill:#000000;fill-opacity:1;stroke:none;font-family:Sans"
       x="136.58537"
       y="132.84999"
       id="text3115"
       sodipodi:linespacing="125%"><tspan
         sodipodi:role="line"
         x="136.58537"
         y="132.84999"
         style="font-size:35px;font-style:normal;font-variant:normal;font-weight:bold;font-stretch:normal;font-family:Latin Modern Roman Caps;-inkscape-font-specification:Latin Modern Roman Caps Bold"
         id="tspan3127">Aggregated data and momentum </tspan></text>
    <text
       xml:space="preserve"
       style="font-size:250px;font-style:normal;font-weight:normal;line-height:125%;letter-spacing:0px;word-spacing:0px;fill:#000000;fill-opacity:1;stroke:none;font-family:Sans"
       x="226.9064"
       y="359.2645"
       id="text3115-1"
       sodipodi:linespacing="125%"><tspan
         sodipodi:role="line"
         x="226.9064"
         y="359.2645"
         style="font-size:50px"
         id="tspan3127-7">Rolling mean</tspan><tspan
         sodipodi:role="line"
         x="226.9064"
         y="421.7645"
         style="font-size:50px"
         id="tspan3185">(trend)</tspan></text>
    <g
       id="g3219"
       transform="translate(36.585366,-14.634146)">
      <path
         inkscape:connector-curvature="0"
         transform="matrix(0.46836934,0.50973557,-0.47627825,0.49317596,572.62991,116.82224)"
         sodipodi:nodetypes="cccccsccc"
         id="path3266-0"
         d="m 385.53663,459.29684 c 63.33703,-11.32358 101.34565,-9.37988 125.1579,0 -4.08738,14.00417 -19.26956,24.52754 -33.23402,36.76955 27.39905,-13.10335 55.19262,-25.07776 84.14571,-36.06245 -8.33632,-34.8261 -36.76532,-54.13577 -60.81118,-78.48884 3.52025,8.18959 8.6488,17.16391 12.08767,25.32095 1.72456,4.09067 2.49069,7.79797 1.34736,10.74148 -41.7193,-13.89449 -83.4386,-13.43017 -125.1579,-2.82843 l -3.53554,44.54774 z"
         style="fill:#8e8e8e;fill-opacity:1;fill-rule:evenodd;stroke:#000000;stroke-width:6.80000019;stroke-linecap:butt;stroke-linejoin:miter;stroke-miterlimit:4;stroke-opacity:1;stroke-dasharray:none;filter:url(#filter3232-7)" />
      <path
         inkscape:connector-curvature="0"
         sodipodi:nodetypes="cccccsccc"
         id="path3268-4"
         d="m 526.54327,540.07644 c 35.0583,26.70062 51.93463,47.03355 58.62013,63.79743 -8.58429,4.82304 -20.70721,2.27402 -33.07834,1.1933 19.07372,7.50401 37.79453,15.76589 56.58704,25.10693 12.68243,-21.42472 8.56394,-45.43905 8.90043,-69.70643 -2.25175,5.8333 -4.12396,12.87343 -6.39832,18.6492 -1.14057,2.89649 -2.54744,5.11536 -4.48487,5.98423 -12.9224,-28.11824 -32.68359,-49.15506 -57.27301,-65.19234 l -22.87306,20.16768 z"
         style="fill:#0c3bfe;fill-opacity:1;fill-rule:evenodd;stroke:#000000;stroke-width:4.68047762;stroke-linecap:butt;stroke-linejoin:miter;stroke-miterlimit:4;stroke-opacity:1;stroke-dasharray:none" />
    </g>
    <text
       xml:space="preserve"
       style="font-size:250px;font-style:normal;font-weight:normal;line-height:125%;letter-spacing:0px;word-spacing:0px;fill:#000000;fill-opacity:1;stroke:none;font-family:Sans"
       x="368.71902"
       y="583.15186"
       id="text3115-1-6"
       sodipodi:linespacing="125%"><tspan
         sodipodi:role="line"
         x="368.71902"
         y="583.15186"
         style="font-size:50px"
         id="tspan3185-8">History</tspan></text>
  </g>
</svg>
